<mxfile host="Electron" modified="2023-10-16T10:52:35.130Z" agent="Mozilla/5.0 (Windows NT 10.0; Win64; x64) AppleWebKit/537.36 (KHTML, like Gecko) draw.io/22.0.2 Chrome/114.0.5735.289 Electron/25.8.4 Safari/537.36" etag="dnnw30NsrTVvtVEuC0mP" version="22.0.2" type="device">
  <diagram name="Page-1" id="jPagU5015DNa-zn7CHGZ">
    <mxGraphModel dx="1256" dy="840" grid="1" gridSize="10" guides="1" tooltips="1" connect="1" arrows="1" fold="1" page="1" pageScale="1" pageWidth="850" pageHeight="1100" math="0" shadow="0">
      <root>
        <mxCell id="0" />
        <mxCell id="1" parent="0" />
        <mxCell id="9p_5jho07hzt4aSOXA9_-1" value="Shape" style="swimlane;fontStyle=1;align=center;verticalAlign=top;childLayout=stackLayout;horizontal=1;startSize=26;horizontalStack=0;resizeParent=1;resizeParentMax=0;resizeLast=0;collapsible=1;marginBottom=0;whiteSpace=wrap;html=1;" parent="1" vertex="1">
          <mxGeometry x="330" y="150" width="190" height="220" as="geometry" />
        </mxCell>
        <mxCell id="9p_5jho07hzt4aSOXA9_-2" value="+ x_position: float&lt;br&gt;+ y_position: float" style="text;strokeColor=none;fillColor=none;align=left;verticalAlign=top;spacingLeft=4;spacingRight=4;overflow=hidden;rotatable=0;points=[[0,0.5],[1,0.5]];portConstraint=eastwest;whiteSpace=wrap;html=1;" parent="9p_5jho07hzt4aSOXA9_-1" vertex="1">
          <mxGeometry y="26" width="190" height="34" as="geometry" />
        </mxCell>
        <mxCell id="9p_5jho07hzt4aSOXA9_-3" value="" style="line;strokeWidth=1;fillColor=none;align=left;verticalAlign=middle;spacingTop=-1;spacingLeft=3;spacingRight=3;rotatable=0;labelPosition=right;points=[];portConstraint=eastwest;strokeColor=inherit;" parent="9p_5jho07hzt4aSOXA9_-1" vertex="1">
          <mxGeometry y="60" width="190" height="8" as="geometry" />
        </mxCell>
        <mxCell id="9p_5jho07hzt4aSOXA9_-4" value="+ __eq__(): bool&lt;br&gt;+ __lt__(): bool&lt;br&gt;+ __gt__(): bool&lt;br&gt;+ __le__(): bool&lt;br&gt;+ __ge__(): bool&lt;br&gt;+ translate():&lt;br&gt;&amp;nbsp;&lt;br&gt;+ __repr__(): str&lt;br&gt;+ __str__(): str" style="text;strokeColor=none;fillColor=none;align=left;verticalAlign=top;spacingLeft=4;spacingRight=4;overflow=hidden;rotatable=0;points=[[0,0.5],[1,0.5]];portConstraint=eastwest;whiteSpace=wrap;html=1;" parent="9p_5jho07hzt4aSOXA9_-1" vertex="1">
          <mxGeometry y="68" width="190" height="152" as="geometry" />
        </mxCell>
        <mxCell id="9p_5jho07hzt4aSOXA9_-13" value="Rectangle" style="swimlane;fontStyle=1;align=center;verticalAlign=top;childLayout=stackLayout;horizontal=1;startSize=26;horizontalStack=0;resizeParent=1;resizeParentMax=0;resizeLast=0;collapsible=1;marginBottom=0;whiteSpace=wrap;html=1;" parent="1" vertex="1">
          <mxGeometry x="530" y="520" width="170" height="180" as="geometry" />
        </mxCell>
        <mxCell id="9p_5jho07hzt4aSOXA9_-14" value="+ width: float&lt;br&gt;+ height: float" style="text;strokeColor=none;fillColor=none;align=left;verticalAlign=top;spacingLeft=4;spacingRight=4;overflow=hidden;rotatable=0;points=[[0,0.5],[1,0.5]];portConstraint=eastwest;whiteSpace=wrap;html=1;" parent="9p_5jho07hzt4aSOXA9_-13" vertex="1">
          <mxGeometry y="26" width="170" height="34" as="geometry" />
        </mxCell>
        <mxCell id="9p_5jho07hzt4aSOXA9_-15" value="" style="line;strokeWidth=1;fillColor=none;align=left;verticalAlign=middle;spacingTop=-1;spacingLeft=3;spacingRight=3;rotatable=0;labelPosition=right;points=[];portConstraint=eastwest;strokeColor=inherit;" parent="9p_5jho07hzt4aSOXA9_-13" vertex="1">
          <mxGeometry y="60" width="170" height="8" as="geometry" />
        </mxCell>
        <mxCell id="9p_5jho07hzt4aSOXA9_-16" value="+ area(): float&lt;br&gt;+ circumfrence(): float&lt;br&gt;+ is_square(): bool&lt;br&gt;+ is_inside_rectangle(): bool&lt;br&gt;&lt;br&gt;+ __repr__(): str&lt;br&gt;+ __str__(): str" style="text;strokeColor=none;fillColor=none;align=left;verticalAlign=top;spacingLeft=4;spacingRight=4;overflow=hidden;rotatable=0;points=[[0,0.5],[1,0.5]];portConstraint=eastwest;whiteSpace=wrap;html=1;" parent="9p_5jho07hzt4aSOXA9_-13" vertex="1">
          <mxGeometry y="68" width="170" height="112" as="geometry" />
        </mxCell>
        <mxCell id="9p_5jho07hzt4aSOXA9_-17" value="Circle" style="swimlane;fontStyle=1;align=center;verticalAlign=top;childLayout=stackLayout;horizontal=1;startSize=26;horizontalStack=0;resizeParent=1;resizeParentMax=0;resizeLast=0;collapsible=1;marginBottom=0;whiteSpace=wrap;html=1;" parent="1" vertex="1">
          <mxGeometry x="140" y="520" width="160" height="170" as="geometry" />
        </mxCell>
        <mxCell id="9p_5jho07hzt4aSOXA9_-18" value="+ radius: float" style="text;strokeColor=none;fillColor=none;align=left;verticalAlign=top;spacingLeft=4;spacingRight=4;overflow=hidden;rotatable=0;points=[[0,0.5],[1,0.5]];portConstraint=eastwest;whiteSpace=wrap;html=1;" parent="9p_5jho07hzt4aSOXA9_-17" vertex="1">
          <mxGeometry y="26" width="160" height="26" as="geometry" />
        </mxCell>
        <mxCell id="9p_5jho07hzt4aSOXA9_-19" value="" style="line;strokeWidth=1;fillColor=none;align=left;verticalAlign=middle;spacingTop=-1;spacingLeft=3;spacingRight=3;rotatable=0;labelPosition=right;points=[];portConstraint=eastwest;strokeColor=inherit;" parent="9p_5jho07hzt4aSOXA9_-17" vertex="1">
          <mxGeometry y="52" width="160" height="8" as="geometry" />
        </mxCell>
        <mxCell id="9p_5jho07hzt4aSOXA9_-20" value="+ area(): float&lt;br&gt;+ circumfrence(): float&lt;br&gt;+ is_unit_circle(): bool&lt;br&gt;+ is_inside_circle(): bool&lt;br&gt;&lt;br&gt;+ __repr__(): str&lt;br&gt;+ __str__(): str" style="text;strokeColor=none;fillColor=none;align=left;verticalAlign=top;spacingLeft=4;spacingRight=4;overflow=hidden;rotatable=0;points=[[0,0.5],[1,0.5]];portConstraint=eastwest;whiteSpace=wrap;html=1;" parent="9p_5jho07hzt4aSOXA9_-17" vertex="1">
          <mxGeometry y="60" width="160" height="110" as="geometry" />
        </mxCell>
        <mxCell id="9p_5jho07hzt4aSOXA9_-23" value="Extends" style="endArrow=block;endSize=16;endFill=0;html=1;rounded=0;exitX=0.5;exitY=0;exitDx=0;exitDy=0;entryX=0;entryY=0.999;entryDx=0;entryDy=0;entryPerimeter=0;" parent="1" source="9p_5jho07hzt4aSOXA9_-17" target="9p_5jho07hzt4aSOXA9_-4" edge="1">
          <mxGeometry width="160" relative="1" as="geometry">
            <mxPoint x="430" y="440" as="sourcePoint" />
            <mxPoint x="330" y="240" as="targetPoint" />
          </mxGeometry>
        </mxCell>
        <mxCell id="9p_5jho07hzt4aSOXA9_-24" value="Extends" style="endArrow=block;endSize=16;endFill=0;html=1;rounded=0;exitX=0.5;exitY=0;exitDx=0;exitDy=0;entryX=0.989;entryY=1.014;entryDx=0;entryDy=0;entryPerimeter=0;" parent="1" source="9p_5jho07hzt4aSOXA9_-13" target="9p_5jho07hzt4aSOXA9_-4" edge="1">
          <mxGeometry width="160" relative="1" as="geometry">
            <mxPoint x="280" y="370" as="sourcePoint" />
            <mxPoint x="519" y="241" as="targetPoint" />
          </mxGeometry>
        </mxCell>
      </root>
    </mxGraphModel>
  </diagram>
</mxfile>
